<svg width="160" height="60" viewBox="0 0 160 60" fill="none" xmlns="http://www.w3.org/2000/svg">
<path d="M82.9815 0H69.0625V60H82.9815V0Z" fill="#CD1817"/>
<path d="M6.1499 24.9024L4.73878 30.1216H0L6.18069 9.78906H12.1484L18.4484 30.1268H13.53L11.9688 24.9024H6.1499ZM11.2812 21.4624L10.0202 17.1477C9.68923 15.9399 9.33004 14.4019 9.02986 13.2251H8.94006C8.67066 14.4329 8.33969 15.9709 8.04208 17.1477L6.81312 21.4624H11.2812Z" fill="#363636"/>
<path d="M33.5738 21.5284H26.1334V26.3554H34.4436V30.127H21.5742V9.79053H34.0177V13.5621H26.1334V17.7865H33.5738V21.5284Z" fill="#363636"/>
<path d="M55.4319 29.1925C53.2526 29.9166 50.9765 30.3034 48.6816 30.3395C44.9922 30.3395 42.3226 29.4041 40.4612 27.6299C39.5155 26.6481 38.7758 25.4849 38.2861 24.2097C37.7964 22.9344 37.5668 21.5731 37.6108 20.2068C37.6416 13.4482 42.5305 9.58632 49.1563 9.58632C51.0711 9.53472 52.9772 9.86267 54.7661 10.5515L53.8065 14.2637C52.3327 13.619 50.7325 13.3198 49.1268 13.3888C45.3168 13.3888 42.406 15.5604 42.406 19.9694C42.406 24.1938 45.0461 26.6377 48.7958 26.6377C49.5458 26.6676 50.2956 26.5756 51.0164 26.3654V22.0713H47.8965V18.4804H55.4268L55.4319 29.1925Z" fill="#363636"/>
<path d="M65.1659 9.78906H60.6055V30.1268H65.1659V9.78906Z" fill="#363636"/>
<path d="M70.65 25.4198C72.221 26.2259 73.955 26.6589 75.7185 26.6856C77.8197 26.6856 78.9255 25.8108 78.9255 24.4534C78.9255 23.216 77.9647 22.4624 75.5363 21.6147C72.1753 20.4083 69.956 18.5373 69.956 15.5503C69.956 12.0807 72.8654 9.45489 77.6068 9.45489C79.3819 9.40468 81.1454 9.75751 82.7663 10.4871L81.7401 14.1684C80.4326 13.5257 78.9953 13.1955 77.5401 13.2032C75.5594 13.2032 74.5998 14.1387 74.5998 15.1645C74.5998 16.4612 75.7094 17.0354 78.3508 18.0315C81.9196 19.3889 83.5706 21.2573 83.5706 24.1566C83.5706 27.5656 80.9909 30.4623 75.4414 30.4623C73.4609 30.478 71.5023 30.0449 69.7109 29.1952L70.65 25.4198Z" fill="white"/>
<path d="M86.207 30.5151H92.5173V32.2583H88.062V34.2789H92.1504V35.8892H88.062V38.2002H92.6109V39.9434H86.207V30.5151Z" fill="#363636"/>
<path d="M93.8613 30.5151H95.7048L99.2261 36.8376H99.2492V30.5151H100.986V39.9447H99.1312L95.6214 33.6325H95.5983V39.9447H93.8613V30.5151Z" fill="#363636"/>
<path d="M104.485 32.2583H101.957V30.5151H108.869V32.2583H106.34V39.9447H104.485V32.2583Z" fill="#363636"/>
<path d="M109.838 30.5151H116.148V32.2583H111.694V34.2789H115.783V35.8892H111.694V38.2002H116.243V39.9434H109.839L109.838 30.5151Z" fill="#363636"/>
<path d="M117.496 30.5153H122.045C122.393 30.511 122.739 30.5782 123.061 30.7127C123.36 30.8397 123.628 31.0313 123.846 31.274C124.063 31.5169 124.232 31.7994 124.342 32.1063C124.458 32.4302 124.516 32.7723 124.513 33.1166C124.528 33.6227 124.417 34.1246 124.189 34.5759C123.963 34.9836 123.607 35.3021 123.178 35.4791V35.5062C123.375 35.561 123.557 35.6588 123.712 35.7926C123.868 35.9264 123.992 36.093 124.076 36.2804C124.274 36.7323 124.385 37.2187 124.4 37.7126C124.4 37.7475 124.4 37.8533 124.412 38.03C124.436 38.4791 124.469 38.8618 124.512 39.1784C124.539 39.4479 124.622 39.7088 124.754 39.9449H122.899C122.824 39.7497 122.774 39.5453 122.752 39.3371C122.724 39.1083 122.699 38.8133 122.675 38.452C122.651 38.1174 122.627 37.8619 122.604 37.6855C122.585 37.2866 122.442 36.9037 122.196 36.5901C122.061 36.4696 121.903 36.3782 121.731 36.3214C121.559 36.2646 121.378 36.2436 121.198 36.2597H119.343V39.9449H117.488L117.496 30.5153ZM119.351 34.7811H121.383C121.556 34.7944 121.73 34.7726 121.894 34.717C122.059 34.6613 122.21 34.573 122.34 34.4572C122.576 34.1719 122.691 33.8041 122.659 33.434C122.674 33.2557 122.654 33.0762 122.599 32.9061C122.544 32.7359 122.456 32.5785 122.34 32.443C122.209 32.3292 122.057 32.2425 121.893 32.1881C121.729 32.1336 121.555 32.1124 121.383 32.1256H119.351V34.7811Z" fill="#363636"/>
<path d="M126.027 30.515H129.832C130.283 30.5048 130.732 30.5878 131.15 30.7589C131.504 30.9071 131.818 31.1379 132.066 31.4324C132.301 31.7178 132.478 32.0477 132.585 32.4027C132.806 33.1435 132.806 33.9329 132.585 34.6737C132.478 35.0287 132.301 35.3586 132.066 35.644C131.818 35.9386 131.504 36.1695 131.15 36.3175C130.732 36.4887 130.283 36.5717 129.832 36.5614H127.882V39.9419H126.027V30.515ZM127.882 34.9524H129.319C129.534 34.9547 129.749 34.9348 129.961 34.893C130.143 34.8557 130.317 34.7839 130.474 34.6814C130.631 34.5759 130.754 34.4266 130.828 34.2517C130.993 33.791 130.993 33.2867 130.828 32.8259C130.753 32.6501 130.63 32.499 130.474 32.3898C130.319 32.2839 130.144 32.2118 129.961 32.1782C129.749 32.141 129.534 32.1233 129.319 32.1253H127.882V34.9524Z" fill="#363636"/>
<path d="M133.91 30.5153H138.464C138.813 30.511 139.158 30.5782 139.48 30.7127C139.78 30.8396 140.048 31.0312 140.265 31.274C140.482 31.5169 140.651 31.7994 140.762 32.1063C140.878 32.4302 140.935 32.7723 140.932 33.1166C140.948 33.6227 140.836 34.1246 140.608 34.5759C140.383 34.9834 140.027 35.3019 139.598 35.4791V35.5062C139.795 35.561 139.978 35.6588 140.133 35.7926C140.288 35.9264 140.412 36.093 140.496 36.2804C140.695 36.7323 140.805 37.2186 140.821 37.7126C140.821 37.7475 140.821 37.8533 140.832 38.03C140.855 38.4791 140.889 38.8618 140.932 39.1784C140.96 39.4479 141.043 39.7088 141.175 39.9449H139.32C139.244 39.7497 139.195 39.5454 139.172 39.3371C139.144 39.1083 139.118 38.8133 139.095 38.452C139.071 38.1174 139.048 37.8619 139.025 37.6855C139.005 37.2866 138.863 36.9037 138.617 36.5901C138.482 36.4696 138.323 36.3782 138.152 36.3214C137.98 36.2646 137.799 36.2436 137.619 36.2597H135.77V39.9449H133.91V30.5153ZM135.765 34.7811H137.797C137.97 34.7944 138.144 34.7726 138.308 34.717C138.473 34.6613 138.624 34.573 138.754 34.4572C138.991 34.1719 139.106 33.8041 139.074 33.434C139.089 33.2557 139.068 33.0762 139.013 32.906C138.959 32.7358 138.87 32.5784 138.754 32.443C138.623 32.3292 138.471 32.2425 138.307 32.1881C138.143 32.1336 137.97 32.1124 137.797 32.1256H135.77L135.765 34.7811Z" fill="#363636"/>
<path d="M144.296 30.5151H142.441V39.9447H144.296V30.5151Z" fill="#363636"/>
<path d="M147.19 36.8145C147.171 37.0594 147.209 37.3054 147.3 37.5333C147.391 37.7612 147.533 37.9647 147.716 38.128C148.099 38.4253 148.574 38.5774 149.058 38.5577C149.242 38.5573 149.426 38.5396 149.607 38.5048C149.792 38.4699 149.972 38.4077 150.139 38.3202C150.304 38.2365 150.444 38.1117 150.547 37.9577C150.654 37.7861 150.708 37.5861 150.701 37.3835C150.707 37.1931 150.653 37.0057 150.547 36.848C150.437 36.6962 150.297 36.57 150.134 36.4777C149.954 36.3732 149.764 36.2868 149.567 36.2196C149.362 36.1491 149.086 36.07 148.74 35.9822C148.511 35.9117 148.33 35.8588 148.196 35.8235C147.862 35.7228 147.535 35.6039 147.214 35.4674C146.936 35.3456 146.676 35.183 146.445 34.9848C146.206 34.7785 146.016 34.521 145.889 34.2313C145.743 33.8874 145.673 33.516 145.683 33.1423C145.674 32.7134 145.765 32.2885 145.948 31.901C146.117 31.5484 146.363 31.2394 146.669 30.9978C146.973 30.7593 147.317 30.5779 147.685 30.4623C148.059 30.3434 148.448 30.2833 148.84 30.2843C149.277 30.2818 149.712 30.3395 150.134 30.4559C150.525 30.5631 150.89 30.7473 151.209 30.9978C151.526 31.252 151.779 31.5778 151.948 31.9487C152.138 32.3806 152.231 32.8494 152.22 33.3216H150.424C150.436 33.112 150.399 32.9025 150.315 32.7098C150.232 32.5171 150.106 32.3467 149.945 32.212C149.592 31.9841 149.177 31.8731 148.758 31.8946C148.439 31.885 148.125 31.9751 147.86 32.1526C147.734 32.2433 147.633 32.3648 147.566 32.5057C147.5 32.6467 147.471 32.8022 147.481 32.9578C147.474 33.1111 147.507 33.2636 147.576 33.4003C147.657 33.5265 147.772 33.6271 147.907 33.6907C148.109 33.793 148.318 33.8793 148.533 33.9487C148.79 34.0347 149.215 34.1638 149.81 34.3358C149.875 34.3467 149.938 34.3644 149.999 34.3887C150.022 34.3972 150.046 34.4016 150.07 34.4016C150.335 34.4725 150.595 34.5587 150.85 34.6597C151.116 34.7742 151.366 34.9229 151.594 35.1022C151.868 35.3179 152.091 35.5931 152.244 35.9074C152.426 36.2882 152.514 36.7072 152.501 37.1293C152.515 37.5393 152.44 37.9474 152.281 38.325C152.121 38.7027 151.882 39.0406 151.579 39.3151C150.852 39.9129 149.928 40.2125 148.991 40.1538C148.529 40.1563 148.069 40.0893 147.626 39.9551C147.208 39.8286 146.818 39.6198 146.481 39.3409C146.139 39.0549 145.868 38.6932 145.689 38.2841C145.488 37.8158 145.389 37.3092 145.399 36.799L147.19 36.8145Z" fill="#363636"/>
<path d="M153.595 30.5151H159.905V32.2583H155.45V34.2789H159.538V35.8892H155.45V38.2002H159.999V39.9434H153.594L153.595 30.5151Z" fill="#363636"/>
</svg>
